<svg xmlns="http://www.w3.org/2000/svg" viewBox="0 0 35 35" shape-rendering="crispEdges" role="img" aria-label="QR code linking to github.com/nickgamb/uma4agents"><rect width="35" height="35" rx="2" fill="#ffffff"/><path fill="#080a0f" d="M3 3h7v1h-7zM13 3h4v1h-4zM21 3h1v1h-1zM25 3h7v1h-7zM3 4h1v1h-1zM9 4h1v1h-1zM11 4h1v1h-1zM14 4h1v1h-1zM17 4h1v1h-1zM20 4h2v1h-2zM23 4h1v1h-1zM25 4h1v1h-1zM31 4h1v1h-1zM3 5h1v1h-1zM5 5h3v1h-3zM9 5h1v1h-1zM11 5h1v1h-1zM13 5h1v1h-1zM15 5h1v1h-1zM19 5h1v1h-1zM22 5h1v1h-1zM25 5h1v1h-1zM27 5h3v1h-3zM31 5h1v1h-1zM3 6h1v1h-1zM5 6h3v1h-3zM9 6h1v1h-1zM11 6h2v1h-2zM14 6h3v1h-3zM18 6h3v1h-3zM23 6h1v1h-1zM25 6h1v1h-1zM27 6h3v1h-3zM31 6h1v1h-1zM3 7h1v1h-1zM5 7h3v1h-3zM9 7h1v1h-1zM14 7h2v1h-2zM17 7h1v1h-1zM19 7h1v1h-1zM21 7h3v1h-3zM25 7h1v1h-1zM27 7h3v1h-3zM31 7h1v1h-1zM3 8h1v1h-1zM9 8h1v1h-1zM13 8h1v1h-1zM15 8h2v1h-2zM19 8h2v1h-2zM23 8h1v1h-1zM25 8h1v1h-1zM31 8h1v1h-1zM3 9h7v1h-7zM11 9h1v1h-1zM13 9h1v1h-1zM15 9h1v1h-1zM17 9h1v1h-1zM19 9h1v1h-1zM21 9h1v1h-1zM23 9h1v1h-1zM25 9h7v1h-7zM11 10h1v1h-1zM13 10h2v1h-2zM17 10h1v1h-1zM19 10h1v1h-1zM3 11h1v1h-1zM9 11h1v1h-1zM11 11h1v1h-1zM13 11h3v1h-3zM18 11h1v1h-1zM20 11h1v1h-1zM22 11h1v1h-1zM24 11h2v1h-2zM28 11h3v1h-3zM3 12h3v1h-3zM7 12h2v1h-2zM14 12h1v1h-1zM17 12h2v1h-2zM21 12h2v1h-2zM24 12h1v1h-1zM26 12h2v1h-2zM29 12h2v1h-2zM5 13h7v1h-7zM13 13h3v1h-3zM18 13h2v1h-2zM21 13h1v1h-1zM27 13h1v1h-1zM3 14h1v1h-1zM7 14h1v1h-1zM11 14h1v1h-1zM14 14h1v1h-1zM18 14h2v1h-2zM22 14h3v1h-3zM28 14h1v1h-1zM3 15h1v1h-1zM5 15h1v1h-1zM7 15h1v1h-1zM9 15h2v1h-2zM13 15h7v1h-7zM23 15h1v1h-1zM25 15h2v1h-2zM31 15h1v1h-1zM8 16h1v1h-1zM11 16h1v1h-1zM16 16h1v1h-1zM18 16h6v1h-6zM25 16h3v1h-3zM30 16h2v1h-2zM4 17h1v1h-1zM7 17h1v1h-1zM9 17h1v1h-1zM12 17h3v1h-3zM16 17h4v1h-4zM23 17h2v1h-2zM27 17h3v1h-3zM3 18h2v1h-2zM8 18h1v1h-1zM13 18h2v1h-2zM16 18h2v1h-2zM19 18h1v1h-1zM22 18h1v1h-1zM26 18h2v1h-2zM29 18h1v1h-1zM31 18h1v1h-1zM4 19h1v1h-1zM6 19h2v1h-2zM9 19h1v1h-1zM11 19h2v1h-2zM14 19h2v1h-2zM17 19h2v1h-2zM20 19h1v1h-1zM22 19h1v1h-1zM24 19h1v1h-1zM26 19h1v1h-1zM28 19h2v1h-2zM3 20h2v1h-2zM6 20h2v1h-2zM10 20h2v1h-2zM13 20h1v1h-1zM18 20h2v1h-2zM21 20h2v1h-2zM25 20h3v1h-3zM29 20h3v1h-3zM3 21h2v1h-2zM6 21h1v1h-1zM8 21h2v1h-2zM11 21h2v1h-2zM14 21h6v1h-6zM21 21h2v1h-2zM27 21h2v1h-2zM31 21h1v1h-1zM3 22h1v1h-1zM6 22h3v1h-3zM10 22h1v1h-1zM12 22h1v1h-1zM17 22h1v1h-1zM19 22h1v1h-1zM21 22h1v1h-1zM23 22h1v1h-1zM25 22h1v1h-1zM3 23h1v1h-1zM5 23h2v1h-2zM8 23h3v1h-3zM12 23h1v1h-1zM14 23h1v1h-1zM18 23h10v1h-10zM29 23h3v1h-3zM11 24h1v1h-1zM15 24h2v1h-2zM18 24h4v1h-4zM23 24h1v1h-1zM27 24h2v1h-2zM3 25h7v1h-7zM12 25h1v1h-1zM16 25h5v1h-5zM22 25h2v1h-2zM25 25h1v1h-1zM27 25h3v1h-3zM3 26h1v1h-1zM9 26h1v1h-1zM15 26h2v1h-2zM22 26h2v1h-2zM27 26h1v1h-1zM31 26h1v1h-1zM3 27h1v1h-1zM5 27h3v1h-3zM9 27h1v1h-1zM14 27h1v1h-1zM16 27h1v1h-1zM18 27h2v1h-2zM22 27h7v1h-7zM31 27h1v1h-1zM3 28h1v1h-1zM5 28h3v1h-3zM9 28h1v1h-1zM13 28h1v1h-1zM15 28h1v1h-1zM18 28h2v1h-2zM22 28h3v1h-3zM28 28h2v1h-2zM31 28h1v1h-1zM3 29h1v1h-1zM5 29h3v1h-3zM9 29h1v1h-1zM14 29h1v1h-1zM18 29h2v1h-2zM22 29h9v1h-9zM3 30h1v1h-1zM9 30h1v1h-1zM12 30h2v1h-2zM17 30h1v1h-1zM25 30h2v1h-2zM28 30h2v1h-2zM31 30h1v1h-1zM3 31h7v1h-7zM11 31h1v1h-1zM13 31h2v1h-2zM16 31h1v1h-1zM20 31h1v1h-1zM22 31h1v1h-1zM25 31h3v1h-3zM29 31h1v1h-1z"/></svg>