<svg xmlns="http://www.w3.org/2000/svg" viewBox="-6 -5.5 351.5 352" role="img" aria-hidden="true">
  <path d="M217.222 188.785C223.912 221.048 211.088 252.824 186.801 271.855C125.456 264.112 76.8453 215.501 69.1 154.159C80.8904 139.07 97.8871 127.92 118.108 123.724C163.437 114.324 207.813 143.454 217.222 188.785Z" fill="#DBC4A4"/>
  <path d="M339.986 136.947C339.986 196.877 301.216 247.755 247.388 265.86L242.465 261.001C245.733 254.545 248.434 247.789 250.514 240.801L266.617 240.634L270.212 221.736L255.259 215.659C255.48 212.962 255.608 210.245 255.643 207.511C255.654 206.613 255.652 205.703 255.647 204.803C255.649 204.787 255.654 204.773 255.649 204.755C255.636 203.893 255.622 203.03 255.59 202.172C255.601 202.124 255.597 202.074 255.592 202.033C255.533 200.266 255.439 198.511 255.304 196.751C255.238 195.835 255.156 194.916 255.064 194.002L269.938 187.672L266.034 168.831L249.865 168.936C249.589 168.074 249.31 167.222 249.008 166.372C248.816 165.802 248.617 165.238 248.409 164.673C248.188 164.063 247.964 163.455 247.733 162.85C247.539 162.329 247.335 161.814 247.132 161.298C246.793 160.457 246.455 159.623 246.106 158.793C245.066 156.345 243.948 153.93 242.751 151.548C242.636 151.324 242.524 151.1 242.408 150.879C242.086 150.25 241.759 149.622 241.425 148.998C241.635 149.386 241.841 149.777 242.047 150.17C241.843 149.775 241.635 149.384 241.427 148.991L252.729 137.466L241.919 121.557L227.032 127.835C226.689 127.426 226.337 127.021 225.983 126.617C225.637 126.217 225.285 125.812 224.922 125.415C223.779 124.142 222.616 122.887 221.419 121.669C221.124 121.367 220.827 121.068 220.523 120.766C219.087 119.317 217.606 117.914 216.1 116.554C215.57 116.074 215.031 115.594 214.489 115.119C213.975 114.669 213.461 114.225 212.944 113.784C212.496 113.405 212.046 113.028 211.587 112.655L217.627 97.6583L201.545 87.1043C201.545 87.1043 190.193 98.6068 190.191 98.609C190.067 98.7325 187.131 97.0915 186.973 97.0161C185.549 96.3374 184.111 95.6883 182.663 95.0667C181.419 94.5319 180.165 94.0199 178.905 93.5263C176.912 92.7447 174.901 92.0179 172.87 91.3437C171.96 91.0352 171.039 90.7427 170.118 90.4661L169.336 74.2009L151.062 70.7293C151.062 70.7293 144.978 85.6759 144.978 85.6828C144.738 85.6576 144.505 85.6439 144.265 85.6188C143.431 85.5479 142.592 85.4954 141.751 85.4565C139.361 85.324 136.961 85.2645 134.55 85.2828C132.948 85.2828 131.339 85.3308 129.726 85.4085C127.692 85.5091 125.669 85.717 123.639 85.8542C123.628 85.8565 123.619 85.8565 123.607 85.8565C123.514 85.8679 123.42 85.877 123.326 85.8862L123.322 85.877L116.991 71.0036L98.1594 74.9093L98.2623 91.0786C97.8806 91.1997 97.4967 91.3277 97.1241 91.4511C96.7448 91.5654 96.3631 91.6934 95.986 91.8328C95.3895 92.0316 94.7976 92.2419 94.2011 92.4521C93.6092 92.6693 93.0241 92.8887 92.4322 93.1058C91.8471 93.3252 91.2529 93.5514 90.6633 93.7868C90.0782 94.0131 89.5023 94.2599 88.9218 94.4976C88.7961 94.5502 88.6658 94.6073 88.5401 94.6599C88.0762 94.8518 87.6214 95.0438 87.1643 95.2449C86.9815 95.3249 86.7964 95.4118 86.6135 95.4895C86.4513 95.558 86.2867 95.6243 86.129 95.702C85.9645 95.7751 85.7999 95.8506 85.6445 95.9191C85.0206 96.1957 84.4127 96.4745 83.8048 96.7624C83.5374 96.8881 83.2791 97.0138 83.0117 97.1372C82.9272 97.183 82.8449 97.2195 82.7603 97.2584C82.1867 97.5372 81.6039 97.8137 81.0371 98.104C80.1344 98.5565 79.2362 99.0204 78.3449 99.4958C78.3403 99.4844 78.3312 99.4912 78.3198 99.5049L74.4003 95.6654C91.8791 40.747 143.296 0.964844 204.004 0.964844C279.105 0.964844 339.986 61.8459 339.986 136.947Z" fill="#DBC4A4"/>
  <path d="M247.388 265.86C233.762 270.445 219.171 272.929 204.003 272.929C198.175 272.929 192.434 272.564 186.801 271.851C176.958 279.564 165.233 285.184 152.163 287.894C106.823 297.301 62.4471 268.171 53.0472 222.835C47.8365 197.716 54.4504 172.897 69.0999 154.154C68.3869 148.518 68.0212 142.775 68.0212 136.947C68.0212 122.556 70.2563 108.684 74.4021 95.6659L66.7871 88.2109L50.8783 99.0209L57.1587 113.899C56.9735 114.05 56.7976 114.205 56.6124 114.365C56.1256 114.788 55.632 115.209 55.1521 115.643C54.663 116.082 54.1716 116.52 53.6894 116.968C53.6391 117.005 53.5934 117.053 53.5431 117.096C53.3557 117.265 53.166 117.441 52.9763 117.615C52.9124 117.674 52.8506 117.734 52.7958 117.793C52.5421 118.026 52.2976 118.262 52.053 118.5C51.6599 118.87 51.276 119.245 50.8921 119.619C50.5812 119.921 50.2818 120.218 49.9802 120.522C49.7105 120.792 49.4408 121.064 49.178 121.336C47.5988 122.935 46.0767 124.576 44.598 126.265C44.566 126.3 44.5318 126.341 44.4975 126.382C44.4815 126.4 44.4655 126.416 44.4495 126.434C44.4221 126.466 44.3923 126.501 44.3649 126.533C44.3192 126.585 44.2781 126.636 44.2369 126.686C43.4713 127.559 42.7171 128.45 41.9835 129.353L26.9798 123.313L16.4258 139.395L27.9374 150.749C27.6951 151.215 27.4597 151.681 27.2312 152.15C26.9249 152.749 26.6347 153.35 26.3467 153.96C26.189 154.282 26.0382 154.604 25.8851 154.936C25.8302 155.055 25.7777 155.173 25.7251 155.292C25.4303 155.907 25.1492 156.529 24.8772 157.157C24.8658 157.164 24.8658 157.171 24.8704 157.18C24.5892 157.809 24.3127 158.446 24.0453 159.086C23.9539 159.292 23.8648 159.5 23.7802 159.71C23.7117 159.865 23.6477 160.021 23.586 160.179C23.3917 160.647 23.2066 161.118 23.0192 161.589C22.7701 162.215 22.5301 162.846 22.2878 163.474C22.2398 163.611 22.1918 163.739 22.1439 163.865C21.7119 165.021 21.2914 166.189 20.9029 167.373C20.8595 167.478 20.8252 167.59 20.7909 167.698C20.6218 168.198 20.4595 168.705 20.295 169.215C20.1281 169.748 19.9567 170.287 19.7967 170.822L3.64573 170.979L0.0507812 189.875L14.8854 195.909L15.0065 195.954C14.9974 195.993 14.9951 196.032 14.9928 196.073C14.9677 196.409 14.9425 196.745 14.9174 197.079C14.7528 199.43 14.6546 201.787 14.6203 204.134C14.6043 205.939 14.6203 207.743 14.6728 209.539C14.7323 211.337 14.8328 213.136 14.9677 214.928C15.0179 215.57 15.0682 216.212 15.1276 216.848C15.1299 216.939 15.1391 217.04 15.1574 217.133C15.1665 217.3 15.1779 217.458 15.1962 217.618L14.9517 217.723L0.331887 223.948L4.23766 242.782L19.9727 242.682C22.1964 249.81 25.0486 256.607 28.4425 263.02L17.5296 274.154L28.3488 290.063L42.6074 284.046C47.3999 289.752 52.6975 294.977 58.4202 299.673L53.1729 314.302L68.7137 324.516L79.5054 313.58C86.092 316.994 92.9985 319.814 100.147 321.972L100.307 337.296L119.203 340.891L124.967 326.703C132.292 327.308 139.763 327.244 147.279 326.465L153.898 340.482L172.103 336.704L172.007 321.247C179.161 318.955 185.969 316.025 192.393 312.542L203.475 323.409L219.384 312.59L213.3 298.163C218.893 293.368 224.017 288.084 228.615 282.389L243.283 288.299L253.834 272.225L247.388 265.86ZM125.282 325.937V325.928C126.096 325.992 126.905 326.056 127.714 326.104C126.898 326.054 126.084 326.006 125.282 325.937ZM224.375 286.795C224.325 286.845 224.279 286.898 224.231 286.948C224.359 286.806 224.492 286.66 224.622 286.512C224.542 286.608 224.462 286.701 224.375 286.795ZM227.239 283.522C227.116 283.666 226.988 283.815 226.864 283.956C227.081 283.703 227.298 283.445 227.516 283.186C227.422 283.298 227.33 283.41 227.239 283.522Z" fill="#DBC4A4"/>
</svg>
